<svg id="Layer_1" width="50px"  data-name="Layer 1" xmlns="http://www.w3.org/2000/svg" xmlns:xlink="http://www.w3.org/1999/xlink" viewBox="0 0 182.01 121.91"><defs><clipPath id="clip-path" transform="translate(-159.08 -144.73)"><rect x="159.08" y="186.67" width="91.59" height="80" style="fill:none"/></clipPath><clipPath id="clip-path-2" transform="translate(-159.08 -144.73)"><rect x="249.33" y="144.69" width="91.74" height="80.64" style="fill:none"/></clipPath></defs><g style="clip-path:url(#clip-path)"><path d="M220.36,243.32v11.05l-50.17-23.23v-9l50.17-23.23v11l-37.94,16.57v.21Zm29.8-56.65h-83.9a7.17,7.17,0,0,0-7.18,7.15v65.67a7.17,7.17,0,0,0,7.18,7.15h60.6l23.3-80" transform="translate(-159.08 -144.73)" style="fill:#0652e9"/></g><g style="clip-path:url(#clip-path-2)"><path d="M330,189.51l-50.16,22.92v-11l38.77-16.57v-.21l-38.77-16.56V157L330,179.92Zm-56.53-44.78-23.29,80h83.76a7.16,7.16,0,0,0,7.17-7.15V151.88a7.16,7.16,0,0,0-7.17-7.15H273.45" transform="translate(-159.08 -144.73)" style="fill:#62e1e9"/></g></svg>